<svg xmlns="http://www.w3.org/2000/svg" viewBox="0 0 660 400"><defs><style>.cls-1{fill:#a8cff0;}.cls-2{fill:#d1ebff;}.cls-3{fill:#f0f8ff;}.cls-4,.cls-5{fill:#fff;}.cls-4{opacity:0.5;}</style></defs><title>Asset 1</title><g id="Layer_2" data-name="Layer 2"><g id="Layer_1-2" data-name="Layer 1"><polygon class="cls-1" points="660 329.54 660 320.89 660 320.89 660 329.54"/><polygon class="cls-2" points="0 307.61 85.24 258.77 0 210 0 307.61"/><polygon class="cls-2" points="453.56 0 495.22 23.84 536.83 0 453.56 0"/><polygon class="cls-2" points="660 0 660 320.89 660 320.89 660 0 660 0 660 0"/><polygon class="cls-3" points="0 307.61 0 400 332.1 400 85.24 258.77 0 307.61"/><polygon class="cls-3" points="536.83 0 495.22 23.84 660 118.17 660 0 536.83 0"/><polygon class="cls-4" points="660 400 660 329.54 660 400 660 400"/><polygon class="cls-3" points="0 0 0 210 85.24 258.77 495.22 23.84 453.56 0 0 0"/><polygon class="cls-2" points="522.45 400 660 400 660 320.89 522.45 400"/><polygon class="cls-2" points="660 118.17 495.22 23.84 85.24 258.77 332.1 400 522.45 400 660 320.89 660 118.17"/><polygon class="cls-5" points="660 118.17 495.22 23.84 85.24 258.77 332.1 400 522.45 400 660 320.89 660 118.17"/></g></g></svg>