<svg xmlns="http://www.w3.org/2000/svg" xmlns:xlink="http://www.w3.org/1999/xlink" viewBox="0 0 260.35 260.59"><defs><style>.cls-1{fill:none;}.cls-2{isolation:isolate;}.cls-3{fill:#e0e0e0;}.cls-4{fill:url(#Áåçûìÿííûé_ãðàäèåíò_26);}.cls-5{fill:url(#Áåçûìÿííûé_ãðàäèåíò_19);}.cls-6{fill:url(#Áåçûìÿííûé_ãðàäèåíò_26-2);}.cls-255,.cls-7{fill:#053054;}.cls-8{fill:url(#Áåçûìÿííûé_ãðàäèåíò_32);}.cls-9{fill:url(#Áåçûìÿííûé_ãðàäèåíò_2);}.cls-10,.cls-268{fill:#fff;}.cls-11{fill:#0063ad;}.cls-12,.cls-255{opacity:0.5;}.cls-12{mix-blend-mode:multiply;}.cls-13{clip-path:url(#clip-path);}.cls-14{fill:#feffff;}.cls-15{fill:#fefeff;}.cls-16{fill:#fefefe;}.cls-17{fill:#fdfefe;}.cls-18{fill:#fdfdfe;}.cls-19{fill:#fcfdfe;}.cls-20{fill:#fbfcfe;}.cls-21{fill:#fbfcfd;}.cls-22{fill:#fafbfd;}.cls-23{fill:#f9fbfd;}.cls-24{fill:#f9fafc;}.cls-25{fill:#f8fafc;}.cls-26{fill:#f7f9fc;}.cls-27{fill:#f6f9fb;}.cls-28{fill:#f6f8fb;}.cls-29{fill:#f5f8fb;}.cls-30{fill:#f5f7fb;}.cls-31{fill:#f4f7fb;}.cls-32{fill:#f4f7fa;}.cls-33{fill:#f3f6fa;}.cls-34{fill:#f2f6fa;}.cls-35{fill:#f2f5fa;}.cls-36{fill:#f1f5f9;}.cls-37{fill:#f1f4f9;}.cls-38{fill:#f0f4f9;}.cls-39{fill:#eff4f9;}.cls-40{fill:#eff3f8;}.cls-41{fill:#eef3f8;}.cls-42{fill:#eef2f8;}.cls-43{fill:#edf2f8;}.cls-44{fill:#ecf1f7;}.cls-45{fill:#ebf0f7;}.cls-46{fill:#eaf0f6;}.cls-47{fill:#eaeff6;}.cls-48{fill:#e9eff6;}.cls-49{fill:#e8eef6;}.cls-50{fill:#e7eef5;}.cls-51{fill:#e7edf5;}.cls-52{fill:#e6edf5;}.cls-53{fill:#e5ecf4;}.cls-54{fill:#e4ebf4;}.cls-55{fill:#e3ebf4;}.cls-56{fill:#e2eaf3;}.cls-57{fill:#e1e9f3;}.cls-58{fill:#e0e8f2;}.cls-59{fill:#dfe8f2;}.cls-60{fill:#dfe7f2;}.cls-61{fill:#dee7f1;}.cls-62{fill:#dde6f1;}.cls-63{fill:#dce6f1;}.cls-64{fill:#dce5f0;}.cls-65{fill:#dbe4f0;}.cls-66{fill:#dae4f0;}.cls-67{fill:#d9e3ef;}.cls-68{fill:#d8e3ef;}.cls-69{fill:#d7e2ef;}.cls-70{fill:#d7e1ee;}.cls-71{fill:#d6e1ee;}.cls-72{fill:#d5e0ee;}.cls-73{fill:#d4e0ed;}.cls-74{fill:#d3dfed;}.cls-75{fill:#d2deed;}.cls-76{fill:#d2deec;}.cls-77{fill:#d1ddec;}.cls-78{fill:#d0dcec;}.cls-79{fill:#cfdceb;}.cls-80{fill:#cedbeb;}.cls-81{fill:#cddbeb;}.cls-82{fill:#ccdaea;}.cls-83{fill:#ccd9ea;}.cls-84{fill:#cbd9e9;}.cls-85{fill:#cad8e9;}.cls-86{fill:#c9d7e9;}.cls-87{fill:#c8d7e8;}.cls-88{fill:#c7d6e8;}.cls-89{fill:#c6d5e8;}.cls-90{fill:#c5d5e7;}.cls-91{fill:#c4d4e7;}.cls-92{fill:#c3d3e6;}.cls-93{fill:#c2d3e6;}.cls-94{fill:#c1d2e6;}.cls-95{fill:#c1d1e5;}.cls-96{fill:#c0d1e5;}.cls-97{fill:#bfd0e5;}.cls-98{fill:#becfe4;}.cls-99{fill:#bdcee4;}.cls-100{fill:#bccee3;}.cls-101{fill:#bbcde3;}.cls-102{fill:#bacce3;}.cls-103{fill:#b9cce2;}.cls-104{fill:#b8cbe2;}.cls-105{fill:#b7cae1;}.cls-106{fill:#b6c9e1;}.cls-107{fill:#b5c9e1;}.cls-108{fill:#b4c8e0;}.cls-109{fill:#b3c7e0;}.cls-110{fill:#b2c7df;}.cls-111{fill:#b1c6df;}.cls-112{fill:#b0c5de;}.cls-113{fill:#afc4de;}.cls-114{fill:#aec4de;}.cls-115{fill:#adc3dd;}.cls-116{fill:#acc2dd;}.cls-117{fill:#abc1dc;}.cls-118{fill:#aac1dc;}.cls-119{fill:#a9c0dc;}.cls-120{fill:#a8bfdb;}.cls-121{fill:#a7bedb;}.cls-122{fill:#a6beda;}.cls-123{fill:#a5bdda;}.cls-124{fill:#a4bcd9;}.cls-125{fill:#a3bbd9;}.cls-126{fill:#a1bad8;}.cls-127{fill:#a0bad8;}.cls-128{fill:#9fb9d8;}.cls-129{fill:#9eb8d7;}.cls-130{fill:#9db7d7;}.cls-131{fill:#9cb6d6;}.cls-132{fill:#9bb6d6;}.cls-133{fill:#9ab5d5;}.cls-134{fill:#99b4d5;}.cls-135{fill:#98b3d4;}.cls-136{fill:#97b2d4;}.cls-137{fill:#96b2d4;}.cls-138{fill:#94b1d3;}.cls-139{fill:#93b0d3;}.cls-140{fill:#92afd2;}.cls-141{fill:#91aed2;}.cls-142{fill:#90aed1;}.cls-143{fill:#8fadd1;}.cls-144{fill:#8eacd0;}.cls-145{fill:#8dabd0;}.cls-146{fill:#8caacf;}.cls-147{fill:#8aa9cf;}.cls-148{fill:#89a9cf;}.cls-149{fill:#88a8ce;}.cls-150{fill:#87a7ce;}.cls-151{fill:#86a6cd;}.cls-152{fill:#85a5cd;}.cls-153{fill:#84a4cc;}.cls-154{fill:#82a4cc;}.cls-155{fill:#81a3cb;}.cls-156{fill:#80a2cb;}.cls-157{fill:#7fa1ca;}.cls-158{fill:#7ea0ca;}.cls-159{fill:#7d9fc9;}.cls-160{fill:#7b9ec9;}.cls-161{fill:#7a9ec8;}.cls-162{fill:#799dc8;}.cls-163{fill:#789cc7;}.cls-164{fill:#779bc7;}.cls-165{fill:#759ac6;}.cls-166{fill:#7499c6;}.cls-167{fill:#7398c5;}.cls-168{fill:#7297c5;}.cls-169{fill:#7197c4;}.cls-170{fill:#6f96c4;}.cls-171{fill:#6e95c3;}.cls-172{fill:#6d94c3;}.cls-173{fill:#6c93c2;}.cls-174{fill:#6b92c2;}.cls-175{fill:#6991c1;}.cls-176{fill:#6890c1;}.cls-177{fill:#678fc0;}.cls-178{fill:#668fc0;}.cls-179{fill:#648ebf;}.cls-180{fill:#638dbf;}.cls-181{fill:#628cbe;}.cls-182{fill:#618bbe;}.cls-183{fill:#5f8abd;}.cls-184{fill:#5e89bd;}.cls-185{fill:#5d88bc;}.cls-186{fill:#5c87bc;}.cls-187{fill:#5a86bb;}.cls-188{fill:#5985bb;}.cls-189{fill:#5884ba;}.cls-190{fill:#5784ba;}.cls-191{fill:#5583b9;}.cls-192{fill:#5482b9;}.cls-193{fill:#5381b8;}.cls-194{fill:#5280b8;}.cls-195{fill:#507fb7;}.cls-196{fill:#4f7eb7;}.cls-197{fill:#4e7db6;}.cls-198{fill:#4c7cb5;}.cls-199{fill:#4b7bb5;}.cls-200{fill:#4a7ab4;}.cls-201{fill:#4979b4;}.cls-202{fill:#4778b3;}.cls-203{fill:#4677b3;}.cls-204{fill:#4576b2;}.cls-205{fill:#4375b2;}.cls-206{fill:#4274b1;}.cls-207{fill:#4173b1;}.cls-208{fill:#3f72b0;}.cls-209{fill:#3e72b0;}.cls-210{fill:#3d71af;}.cls-211{fill:#3b70ae;}.cls-212{fill:#3a6fae;}.cls-213{fill:#396ead;}.cls-214{fill:#376dad;}.cls-215{fill:#366cac;}.cls-216{fill:#356bac;}.cls-217{fill:#336aab;}.cls-218{fill:#3269ab;}.cls-219{fill:#3168aa;}.cls-220{fill:#2f67aa;}.cls-221{fill:#2e66a9;}.cls-222{fill:#2d65a8;}.cls-223{fill:#2b64a8;}.cls-224{fill:#2a63a7;}.cls-225{fill:#2962a7;}.cls-226{fill:#2761a6;}.cls-227{fill:#2660a6;}.cls-228{fill:#255fa5;}.cls-229{fill:#235ea4;}.cls-230{fill:#225da4;}.cls-231{fill:#205ca3;}.cls-232{fill:#1f5ba3;}.cls-233{fill:#1e5aa2;}.cls-234{fill:#1c59a2;}.cls-235{fill:#1b58a1;}.cls-236{fill:#1957a0;}.cls-237{fill:#1856a0;}.cls-238{fill:#17559f;}.cls-239{fill:#15549f;}.cls-240{fill:#14539e;}.cls-241{fill:#12529e;}.cls-242{fill:#11519d;}.cls-243{fill:#104f9c;}.cls-244{fill:#0e4e9c;}.cls-245{fill:#0d4d9b;}.cls-246{fill:#0b4c9b;}.cls-247{fill:#0a4b9a;}.cls-248{fill:#094a9a;}.cls-249{fill:#074999;}.cls-250{fill:#064898;}.cls-251{fill:#044798;}.cls-252{fill:#034697;}.cls-253{fill:#014597;}.cls-254{fill:#004496;}.cls-256{fill:url(#Áåçûìÿííûé_ãðàäèåíò_2-2);}.cls-257{fill:url(#Áåçûìÿííûé_ãðàäèåíò_2-3);}.cls-258{fill:url(#Áåçûìÿííûé_ãðàäèåíò_2-4);}.cls-259{fill:url(#Áåçûìÿííûé_ãðàäèåíò_2-5);}.cls-260{fill:#dde1ed;}.cls-261{clip-path:url(#clip-path-2);}.cls-262{fill:url(#Áåçûìÿííûé_ãðàäèåíò_11);}.cls-263{fill:url(#Áåçûìÿííûé_ãðàäèåíò_17);}.cls-264{fill:url(#Áåçûìÿííûé_ãðàäèåíò_14);}.cls-265{fill:#a9ebff;}.cls-266{fill:url(#Áåçûìÿííûé_ãðàäèåíò_11-2);}.cls-267{fill:url(#Áåçûìÿííûé_ãðàäèåíò_17-2);}.cls-268{opacity:0.2;}</style><radialGradient id="Áåçûìÿííûé_ãðàäèåíò_26" cx="148.81" cy="-7.64" r="230.85" gradientUnits="userSpaceOnUse"><stop offset="0" stop-color="#366491"/><stop offset="1" stop-color="#113f6d"/></radialGradient><radialGradient id="Áåçûìÿííûé_ãðàäèåíò_19" cx="199.1" cy="203.67" r="61.03" gradientUnits="userSpaceOnUse"><stop offset="0" stop-color="#fcb454"/><stop offset="1" stop-color="#ff962e"/></radialGradient><radialGradient id="Áåçûìÿííûé_ãðàäèåíò_26-2" cx="33.11" cy="0.94" r="40.54" xlink:href="#Áåçûìÿííûé_ãðàäèåíò_26"/><linearGradient id="Áåçûìÿííûé_ãðàäèåíò_32" x1="42.75" y1="101.35" x2="240.79" y2="205.69" gradientUnits="userSpaceOnUse"><stop offset="0" stop-color="#3a9bd5"/><stop offset="0.31" stop-color="#3a9bd5"/><stop offset="0.36" stop-color="#3a9bd5"/><stop offset="0.6" stop-color="#3999d4"/><stop offset="0.69" stop-color="#3592cf"/><stop offset="0.75" stop-color="#2f86c7"/><stop offset="0.8" stop-color="#2676bc"/><stop offset="0.81" stop-color="#2573ba"/></linearGradient><linearGradient id="Áåçûìÿííûé_ãðàäèåíò_2" x1="1582.27" y1="-239.09" x2="1712.73" y2="-170.35" gradientTransform="matrix(1, -0.58, 0.87, 0.5, -1327.04, 1200.97)" gradientUnits="userSpaceOnUse"><stop offset="0" stop-color="#59bdef"/><stop offset="1" stop-color="#7bdaff"/></linearGradient><clipPath id="clip-path"><polygon class="cls-1" points="214.36 167.97 179.83 190.88 67.84 135.18 102.38 112.28 214.36 167.97"/></clipPath><linearGradient id="Áåçûìÿííûé_ãðàäèåíò_2-2" x1="1889.41" y1="-875.46" x2="1698.66" y2="-899.76" gradientTransform="matrix(1, -0.58, 0.87, 0.5, -861.56, 1530.79)" xlink:href="#Áåçûìÿííûé_ãðàäèåíò_2"/><linearGradient id="Áåçûìÿííûé_ãðàäèåíò_2-3" x1="187.3" y1="125.46" x2="151.1" y2="144.94" gradientTransform="matrix(1, 0, 0, 1, 0, 0)" xlink:href="#Áåçûìÿííûé_ãðàäèåíò_2"/><linearGradient id="Áåçûìÿííûé_ãðàäèåíò_2-4" x1="75.85" y1="60.73" x2="34.26" y2="74.71" gradientTransform="matrix(1, 0, 0, 1, 0, 0)" xlink:href="#Áåçûìÿííûé_ãðàäèåíò_2"/><linearGradient id="Áåçûìÿííûé_ãðàäèåíò_2-5" x1="58.68" y1="104.51" x2="222.99" y2="104.51" gradientTransform="matrix(1, 0, 0, 1, 0, 0)" xlink:href="#Áåçûìÿííûé_ãðàäèåíò_2"/><clipPath id="clip-path-2"><polygon class="cls-1" points="69.74 204.39 54.47 194.09 70.67 148.19 116.96 163.28 93.34 212.06 69.74 204.39"/></clipPath><linearGradient id="Áåçûìÿííûé_ãðàäèåíò_11" x1="-2010.5" y1="171.95" x2="-1990.06" y2="186.04" gradientTransform="translate(2080.32)" gradientUnits="userSpaceOnUse"><stop offset="0" stop-color="#3a9bd5"/><stop offset="1" stop-color="#2573ba"/></linearGradient><linearGradient id="Áåçûìÿííûé_ãðàäèåíò_17" x1="-2004.99" y1="164.99" x2="-1981.99" y2="174.87" gradientTransform="translate(2080.32)" gradientUnits="userSpaceOnUse"><stop offset="0" stop-color="#7bdaff"/><stop offset="1" stop-color="#59bdef"/></linearGradient><linearGradient id="Áåçûìÿííûé_ãðàäèåíò_14" x1="-1994.87" y1="175.47" x2="-1973.05" y2="182.05" gradientTransform="translate(2080.32)" gradientUnits="userSpaceOnUse"><stop offset="0" stop-color="#2573ba"/><stop offset="1" stop-color="#0063ad"/></linearGradient><linearGradient id="Áåçûìÿííûé_ãðàäèåíò_11-2" x1="-2078.16" y1="207.65" x2="-2050.49" y2="207.65" xlink:href="#Áåçûìÿííûé_ãðàäèåíò_11"/><linearGradient id="Áåçûìÿííûé_ãðàäèåíò_17-2" x1="-2058.39" y1="202.75" x2="-1995.43" y2="202.75" xlink:href="#Áåçûìÿííûé_ãðàäèåíò_17"/></defs><title>Asset 2</title><g class="cls-2"><g id="Layer_2" data-name="Layer 2"><g id="Ñëîé_1" data-name="Ñëîé 1"><path class="cls-3" d="M257.82,199.32l-68.54,39.59c-3.07,1.76-7.7,2-10.35.43L28.69,152.6c-2.65-1.53-2.31-4.21.75-6L98,107c3.06-1.77,7.69-2,10.34-.43l150.24,86.74C261.21,194.88,260.88,197.55,257.82,199.32Z"/><path class="cls-4" d="M57.12,32.2,3.93,126.32a30.3,30.3,0,0,0,9.43,40l81.48,55a30.29,30.29,0,0,0,23.79,4.4l110.51-25.59a30.32,30.32,0,0,0,23.47-29.48l.16-92.88A30.3,30.3,0,0,0,229,48.12L90,17.52A30.31,30.31,0,0,0,57.12,32.2Z"/><path class="cls-5" d="M141.7,235.55l57.77-13.3a3.31,3.31,0,0,1,4,2.9l3.12,31.8a3.31,3.31,0,0,1-4.36,3.46l-60.78-20.8A2.11,2.11,0,0,1,141.7,235.55Z"/><path class="cls-6" d="M38.13,38.47l11-19.1a4.71,4.71,0,0,0-3.14-7L26.6,8.4a4.2,4.2,0,0,0-5,3.63L18.94,34.78a4.21,4.21,0,0,0,3.77,4.67l11.38,1.09A4.19,4.19,0,0,0,38.13,38.47Z"/><path class="cls-7" d="M238.34,69.81,144,124.28a7.12,7.12,0,0,1-6.4.27L79.82,91.19c-1.64-.94-1.44-2.6.46-3.69L174.63,33a7.11,7.11,0,0,1,6.4-.26L238.8,66.11C240.44,67.06,240.23,68.71,238.34,69.81Z"/><path class="cls-7" d="M108.32,106.61c-2.65-1.53-7.28-1.34-10.34.43L29.44,146.62c-3.06,1.77-3.4,4.45-.75,6l116.15,67.05,84.3-19.52a30.27,30.27,0,0,0,18.58-13Z"/><path class="cls-8" d="M260.35,170.21l-14.12-2.46L108.32,88.13c-2.65-1.53-7.28-1.34-10.34.43L34.1,125.46l-7.19-1.25v7.3h0a3.08,3.08,0,0,0,1.78,2.61l150.24,86.74c2.65,1.53,7.28,1.34,10.35-.43l68.54-39.59c1.7-1,2.55-2.24,2.53-3.43h0Z"/><path class="cls-9" d="M257.82,173.59l-68.54,39.58c-3.07,1.77-7.7,2-10.35.43L28.69,126.86c-2.65-1.53-2.31-4.2.75-6L98,81.3c3.06-1.76,7.69-2,10.34-.43l150.24,86.74C261.21,169.14,260.88,171.82,257.82,173.59Z"/><path class="cls-10" d="M257.82,172.65l-68.54,39.59c-3.07,1.77-7.7,2-10.35.43L28.69,125.93A3.29,3.29,0,0,1,27,123.82a2.89,2.89,0,0,0,1.73,3L178.93,213.6c2.65,1.53,7.28,1.34,10.35-.43l68.54-39.58c1.9-1.1,2.75-2.55,2.48-3.86A4.62,4.62,0,0,1,257.82,172.65Z"/><path class="cls-11" d="M74,99.25l-10.58,6.1a1.71,1.71,0,0,1-1.55.07l-.1-.06c-.4-.23-.35-.63.11-.9l10.57-6.11A1.76,1.76,0,0,1,74,98.29l.1.06C74.49,98.58,74.44,99,74,99.25Z"/><g class="cls-12"><g class="cls-13"><rect class="cls-10" x="67.84" y="112.28" width="146.52" height="78.6"/><ellipse class="cls-10" cx="141.09" cy="151.27" rx="17.4" ry="58.87" transform="translate(-56.08 213.84) rotate(-64.6)"/><ellipse class="cls-10" cx="141.09" cy="151.27" rx="17.34" ry="58.64" transform="translate(-56.08 213.84) rotate(-64.6)"/><ellipse class="cls-10" cx="141.09" cy="151.27" rx="17.27" ry="58.41" transform="translate(-56.08 213.84) rotate(-64.6)"/><ellipse class="cls-10" cx="141.09" cy="151.27" rx="17.2" ry="58.18" transform="translate(-56.08 213.84) rotate(-64.6)"/><ellipse class="cls-14" cx="141.09" cy="151.27" rx="17.13" ry="57.95" transform="translate(-56.08 213.84) rotate(-64.6)"/><ellipse class="cls-15" cx="141.09" cy="151.27" rx="17.06" ry="57.72" transform="translate(-56.08 213.84) rotate(-64.6)"/><ellipse class="cls-15" cx="141.09" cy="151.27" rx="16.99" ry="57.49" transform="translate(-56.08 213.84) rotate(-64.6)"/><ellipse class="cls-16" cx="141.09" cy="151.27" rx="16.93" ry="57.25" transform="translate(-56.08 213.84) rotate(-64.6)"/><ellipse class="cls-17" cx="141.09" cy="151.27" rx="16.86" ry="57.02" transform="translate(-56.08 213.84) rotate(-64.6)"/><ellipse class="cls-18" cx="141.09" cy="151.27" rx="16.79" ry="56.79" transform="translate(-56.08 213.84) rotate(-64.6)"/><ellipse class="cls-18" cx="141.09" cy="151.27" rx="16.72" ry="56.56" transform="translate(-56.08 213.84) rotate(-64.6)"/><ellipse class="cls-19" cx="141.09" cy="151.27" rx="16.65" ry="56.33" transform="translate(-56.08 213.84) rotate(-64.6)"/><ellipse class="cls-19" cx="141.09" cy="151.27" rx="16.58" ry="56.1" transform="translate(-56.08 213.84) rotate(-64.6)"/><ellipse class="cls-20" cx="141.09" cy="151.27" rx="16.52" ry="55.87" transform="translate(-56.08 213.84) rotate(-64.6)"/><ellipse class="cls-21" cx="141.09" cy="151.27" rx="16.45" ry="55.64" transform="translate(-56.08 213.84) rotate(-64.6)"/><ellipse class="cls-21" cx="141.09" cy="151.27" rx="16.38" ry="55.41" transform="translate(-56.08 213.84) rotate(-64.6)"/><ellipse class="cls-22" cx="141.09" cy="151.27" rx="16.31" ry="55.18" transform="translate(-56.08 213.84) rotate(-64.6)"/><ellipse class="cls-22" cx="141.09" cy="151.27" rx="16.24" ry="54.95" transform="translate(-56.08 213.84) rotate(-64.6)"/><ellipse class="cls-23" cx="141.09" cy="151.27" rx="16.18" ry="54.72" transform="translate(-56.08 213.84) rotate(-64.6)"/><ellipse class="cls-24" cx="141.09" cy="151.27" rx="16.11" ry="54.48" transform="translate(-56.08 213.84) rotate(-64.6)"/><ellipse class="cls-25" cx="141.09" cy="151.27" rx="16.04" ry="54.25" transform="translate(-56.08 213.84) rotate(-64.6)"/><ellipse class="cls-25" cx="141.09" cy="151.27" rx="15.97" ry="54.02" transform="translate(-56.08 213.84) rotate(-64.6)"/><ellipse class="cls-26" cx="141.09" cy="151.27" rx="15.9" ry="53.79" transform="translate(-56.08 213.84) rotate(-64.6)"/><ellipse class="cls-26" cx="141.09" cy="151.27" rx="15.83" ry="53.56" transform="translate(-56.08 213.84) rotate(-64.6)"/><ellipse class="cls-27" cx="141.09" cy="151.27" rx="15.77" ry="53.33" transform="translate(-56.08 213.84) rotate(-64.6)"/><ellipse class="cls-28" cx="141.09" cy="151.27" rx="15.7" ry="53.1" transform="translate(-56.08 213.84) rotate(-64.6)"/><ellipse class="cls-29" cx="141.09" cy="151.27" rx="15.63" ry="52.87" transform="translate(-56.08 213.84) rotate(-64.6)"/><ellipse class="cls-30" cx="141.09" cy="151.27" rx="15.56" ry="52.64" transform="translate(-56.08 213.84) rotate(-64.6)"/><ellipse class="cls-31" cx="141.09" cy="151.27" rx="15.49" ry="52.41" transform="translate(-56.08 213.84) rotate(-64.6)"/><ellipse class="cls-32" cx="141.09" cy="151.27" rx="15.42" ry="52.18" transform="translate(-56.08 213.84) rotate(-64.6)"/><ellipse class="cls-33" cx="141.09" cy="151.27" rx="15.36" ry="51.94" transform="translate(-56.08 213.84) rotate(-64.6)"/><ellipse class="cls-34" cx="141.09" cy="151.27" rx="15.29" ry="51.71" transform="translate(-56.08 213.84) rotate(-64.6)"/><ellipse class="cls-35" cx="141.09" cy="151.27" rx="15.22" ry="51.48" transform="translate(-56.08 213.84) rotate(-64.6)"/><ellipse class="cls-36" cx="141.09" cy="151.27" rx="15.15" ry="51.25" transform="translate(-56.08 213.84) rotate(-64.6)"/><ellipse class="cls-37" cx="141.09" cy="151.27" rx="15.08" ry="51.02" transform="translate(-56.08 213.84) rotate(-64.6)"/><path class="cls-38" d="M187,173.06c-3.56,7.49-27,3.81-52.33-8.22S91.65,137,95.2,129.49s27-3.81,52.33,8.22S190.52,165.57,187,173.06Z"/><ellipse class="cls-39" cx="141.09" cy="151.27" rx="14.95" ry="50.56" transform="translate(-56.08 213.84) rotate(-64.6)"/><ellipse class="cls-40" cx="141.09" cy="151.27" rx="14.88" ry="50.33" transform="translate(-56.08 213.84) rotate(-64.6)"/><ellipse class="cls-41" cx="141.09" cy="151.27" rx="14.81" ry="50.1" transform="translate(-56.08 213.84) rotate(-64.6)"/><ellipse class="cls-42" cx="141.09" cy="151.27" rx="14.74" ry="49.87" transform="translate(-56.08 213.84) rotate(-64.6)"/><ellipse class="cls-43" cx="141.09" cy="151.27" rx="14.67" ry="49.64" transform="translate(-56.08 213.84) rotate(-64.6)"/><ellipse class="cls-44" cx="141.09" cy="151.27" rx="14.61" ry="49.41" transform="translate(-56.08 213.84) rotate(-64.6)"/><ellipse class="cls-44" cx="141.09" cy="151.27" rx="14.54" ry="49.17" transform="translate(-56.08 213.84) rotate(-64.6)"/><ellipse class="cls-45" cx="141.09" cy="151.27" rx="14.47" ry="48.94" transform="translate(-56.08 213.84) rotate(-64.6)"/><path class="cls-46" d="M185.09,172.17c-3.41,7.18-25.88,3.65-50.18-7.89s-41.24-26.72-37.83-33.9,25.88-3.65,50.18,7.88S188.5,165,185.09,172.17Z"/><ellipse class="cls-47" cx="141.09" cy="151.27" rx="14.33" ry="48.48" transform="translate(-56.08 213.84) rotate(-64.6)"/><ellipse class="cls-48" cx="141.09" cy="151.27" rx="14.26" ry="48.25" transform="translate(-56.08 213.84) rotate(-64.6)"/><path class="cls-49" d="M184.46,171.87C181.1,179,159,175.47,135,164.1s-40.66-26.34-37.29-33.42,25.51-3.61,49.46,7.77S187.83,164.79,184.46,171.87Z"/><ellipse class="cls-50" cx="141.09" cy="151.27" rx="14.13" ry="47.79" transform="translate(-56.08 213.84) rotate(-64.6)"/><ellipse class="cls-51" cx="141.09" cy="151.27" rx="14.06" ry="47.56" transform="translate(-56.08 213.84) rotate(-64.6)"/><ellipse class="cls-52" cx="141.09" cy="151.27" rx="13.99" ry="47.33" transform="translate(-56.08 213.84) rotate(-64.6)"/><ellipse class="cls-53" cx="141.09" cy="151.27" rx="13.92" ry="47.1" transform="translate(-56.08 213.84) rotate(-64.6)"/><ellipse class="cls-53" cx="141.09" cy="151.27" rx="13.85" ry="46.87" transform="translate(-56.08 213.84) rotate(-64.6)"/><ellipse class="cls-54" cx="141.09" cy="151.27" rx="13.79" ry="46.64" transform="translate(-56.08 213.84) rotate(-64.6)"/><ellipse class="cls-55" cx="141.09" cy="151.27" rx="13.72" ry="46.4" transform="translate(-56.08 213.84) rotate(-64.6)"/><ellipse class="cls-56" cx="141.09" cy="151.27" rx="13.65" ry="46.17" transform="translate(-56.08 213.84) rotate(-64.6)"/><ellipse class="cls-56" cx="141.09" cy="151.27" rx="13.58" ry="45.94" transform="matrix(0.43, -0.9, 0.9, 0.43, -56.08, 213.84)"/><ellipse class="cls-57" cx="141.09" cy="151.27" rx="13.51" ry="45.71" transform="translate(-56.08 213.84) rotate(-64.6)"/><ellipse class="cls-58" cx="141.09" cy="151.27" rx="13.45" ry="45.48" transform="translate(-56.08 213.84) rotate(-64.6)"/><ellipse class="cls-59" cx="141.09" cy="151.27" rx="13.38" ry="45.25" transform="translate(-56.08 213.84) rotate(-64.6)"/><ellipse class="cls-60" cx="141.09" cy="151.27" rx="13.31" ry="45.02" transform="translate(-56.08 213.84) rotate(-64.6)"/><ellipse class="cls-61" cx="141.09" cy="151.27" rx="13.24" ry="44.79" transform="translate(-56.08 213.84) rotate(-64.6)"/><ellipse class="cls-62" cx="141.09" cy="151.27" rx="13.17" ry="44.56" transform="translate(-56.08 213.84) rotate(-64.6)"/><ellipse class="cls-63" cx="141.09" cy="151.27" rx="13.1" ry="44.33" transform="translate(-56.08 213.84) rotate(-64.6)"/><ellipse class="cls-64" cx="141.09" cy="151.27" rx="13.04" ry="44.1" transform="translate(-56.08 213.84) rotate(-64.6)"/><ellipse class="cls-65" cx="141.09" cy="151.27" rx="12.97" ry="43.86" transform="translate(-56.08 213.84) rotate(-64.6)"/><ellipse class="cls-66" cx="141.09" cy="151.27" rx="12.9" ry="43.63" transform="translate(-56.08 213.84) rotate(-64.6)"/><ellipse class="cls-67" cx="141.09" cy="151.27" rx="12.83" ry="43.4" transform="translate(-56.08 213.84) rotate(-64.6)"/><ellipse class="cls-68" cx="141.09" cy="151.27" rx="12.76" ry="43.17" transform="translate(-56.08 213.84) rotate(-64.6)"/><ellipse class="cls-69" cx="141.09" cy="151.27" rx="12.69" ry="42.94" transform="translate(-56.08 213.84) rotate(-64.6)"/><path class="cls-70" d="M179.67,169.59c-3,6.3-22.69,3.21-44-6.91S99.51,139.25,102.5,133s22.69-3.2,44,6.92S182.66,163.29,179.67,169.59Z"/><ellipse class="cls-71" cx="141.09" cy="151.27" rx="12.56" ry="42.48" transform="translate(-56.08 213.84) rotate(-64.6)"/><ellipse class="cls-72" cx="141.09" cy="151.27" rx="12.49" ry="42.25" transform="translate(-56.08 213.84) rotate(-64.6)"/><path class="cls-73" d="M179,169.3c-2.94,6.19-22.32,3.15-43.28-6.81s-35.57-23-32.63-29.24,22.32-3.15,43.28,6.8S182,163.1,179,169.3Z"/><ellipse class="cls-74" cx="141.09" cy="151.27" rx="12.35" ry="41.79" transform="translate(-56.08 213.84) rotate(-64.6)"/><ellipse class="cls-75" cx="141.09" cy="151.27" rx="12.29" ry="41.56" transform="translate(-56.08 213.84) rotate(-64.6)"/><ellipse class="cls-76" cx="141.09" cy="151.27" rx="12.22" ry="41.33" transform="translate(-56.08 213.84) rotate(-64.6)"/><ellipse class="cls-77" cx="141.09" cy="151.27" rx="12.15" ry="41.09" transform="translate(-56.08 213.84) rotate(-64.6)"/><ellipse class="cls-78" cx="141.09" cy="151.27" rx="12.08" ry="40.86" transform="translate(-56.08 213.84) rotate(-64.6)"/><path class="cls-79" d="M177.79,168.7c-2.85,6-21.59,3.05-41.86-6.58s-34.4-22.28-31.55-28.27,21.59-3,41.86,6.57S180.64,162.71,177.79,168.7Z"/><ellipse class="cls-80" cx="141.09" cy="151.27" rx="11.94" ry="40.4" transform="translate(-56.08 213.84) rotate(-64.6)"/><ellipse class="cls-81" cx="141.09" cy="151.27" rx="11.88" ry="40.17" transform="translate(-56.08 213.84) rotate(-64.6)"/><ellipse class="cls-82" cx="141.09" cy="151.27" rx="11.81" ry="39.94" transform="translate(-56.08 213.84) rotate(-64.6)"/><path class="cls-83" d="M177,168.31c-2.78,5.85-21.1,3-40.91-6.43s-33.62-21.78-30.84-27.64,21.1-3,40.91,6.43S179.74,162.45,177,168.31Z"/><path class="cls-84" d="M176.75,168.21c-2.77,5.82-21,3-40.67-6.39s-33.42-21.66-30.66-27.48,21-3,40.67,6.39S179.51,162.38,176.75,168.21Z"/><path class="cls-85" d="M176.54,168.11c-2.75,5.79-20.85,2.94-40.43-6.35s-33.23-21.53-30.48-27.32,20.85-2.94,40.43,6.35S179.29,162.32,176.54,168.11Z"/><ellipse class="cls-86" cx="141.09" cy="151.27" rx="11.53" ry="39.02" transform="translate(-56.08 213.84) rotate(-64.6)"/><ellipse class="cls-87" cx="141.09" cy="151.27" rx="11.47" ry="38.79" transform="translate(-56.08 213.84) rotate(-64.6)"/><path class="cls-88" d="M175.91,167.81c-2.7,5.69-20.48,2.89-39.71-6.24s-32.64-21.15-29.94-26.83,20.48-2.9,39.71,6.24S178.61,162.12,175.91,167.81Z"/><ellipse class="cls-89" cx="141.09" cy="151.27" rx="11.33" ry="38.32" transform="translate(-56.08 213.84) rotate(-64.6)"/><ellipse class="cls-90" cx="141.09" cy="151.27" rx="11.26" ry="38.09" transform="translate(-56.08 213.84) rotate(-64.6)"/><ellipse class="cls-91" cx="141.09" cy="151.27" rx="11.19" ry="37.86" transform="translate(-56.08 213.84) rotate(-64.6)"/><ellipse class="cls-92" cx="141.09" cy="151.27" rx="11.12" ry="37.63" transform="translate(-56.08 213.84) rotate(-64.6)"/><path class="cls-93" d="M174.87,167.32c-2.62,5.51-19.87,2.8-38.53-6.06s-31.66-20.51-29-26,19.87-2.8,38.53,6.06S177.49,161.8,174.87,167.32Z"/><ellipse class="cls-94" cx="141.09" cy="151.27" rx="10.99" ry="37.17" transform="translate(-56.08 213.84) rotate(-64.6)"/><ellipse class="cls-95" cx="141.09" cy="151.27" rx="10.92" ry="36.94" transform="translate(-56.08 213.84) rotate(-64.6)"/><path class="cls-96" d="M174.24,167c-2.57,5.41-19.5,2.75-37.81-5.94s-31.08-20.14-28.5-25.55,19.5-2.75,37.81,5.94S176.82,161.6,174.24,167Z"/><path class="cls-97" d="M174,166.92c-2.56,5.38-19.38,2.74-37.58-5.9s-30.88-20-28.33-25.39,19.38-2.74,37.58,5.9S176.59,161.54,174,166.92Z"/><ellipse class="cls-98" cx="141.09" cy="151.27" rx="10.72" ry="36.25" transform="translate(-56.08 213.84) rotate(-64.6)"/><path class="cls-99" d="M173.62,166.72c-2.52,5.31-19.13,2.7-37.1-5.83s-30.49-19.75-28-25.06,19.13-2.71,37.1,5.83S176.14,161.41,173.62,166.72Z"/><ellipse class="cls-100" cx="141.09" cy="151.27" rx="10.58" ry="35.78" transform="translate(-56.08 213.84) rotate(-64.6)"/><ellipse class="cls-101" cx="141.09" cy="151.27" rx="10.51" ry="35.55" transform="translate(-56.08 213.84) rotate(-64.6)"/><ellipse class="cls-102" cx="141.09" cy="151.27" rx="10.44" ry="35.32" transform="translate(-56.08 213.84) rotate(-64.6)"/><ellipse class="cls-103" cx="141.09" cy="151.27" rx="10.37" ry="35.09" transform="translate(-56.08 213.84) rotate(-64.6)"/><ellipse class="cls-104" cx="141.09" cy="151.27" rx="10.31" ry="34.86" transform="translate(-56.08 213.84) rotate(-64.6)"/><ellipse class="cls-105" cx="141.09" cy="151.27" rx="10.24" ry="34.63" transform="translate(-56.08 213.84) rotate(-64.6)"/><path class="cls-106" d="M172.16,166c-2.41,5.07-18.27,2.58-35.44-5.57S107.6,141.59,110,136.52s18.28-2.58,35.44,5.57S174.57,161,172.16,166Z"/><ellipse class="cls-107" cx="141.09" cy="151.27" rx="10.1" ry="34.17" transform="translate(-56.08 213.84) rotate(-64.6)"/><ellipse class="cls-108" cx="141.09" cy="151.27" rx="10.03" ry="33.94" transform="translate(-56.08 213.84) rotate(-64.6)"/><ellipse class="cls-109" cx="141.09" cy="151.27" rx="9.96" ry="33.71" transform="translate(-56.08 213.84) rotate(-64.6)"/><ellipse class="cls-110" cx="141.09" cy="151.27" rx="9.9" ry="33.48" transform="translate(-56.08 213.84) rotate(-64.6)"/><ellipse class="cls-111" cx="141.09" cy="151.27" rx="9.83" ry="33.24" transform="translate(-56.08 213.84) rotate(-64.6)"/><ellipse class="cls-112" cx="141.09" cy="151.27" rx="9.76" ry="33.01" transform="translate(-56.08 213.84) rotate(-64.6)"/><path class="cls-113" d="M170.7,165.34c-2.3,4.83-17.42,2.45-33.77-5.31s-27.76-18-25.46-22.82,17.42-2.46,33.77,5.31S173,160.5,170.7,165.34Z"/><path class="cls-114" d="M170.49,165.24C168.21,170,153.2,167.68,137,160s-27.56-17.86-25.28-22.66,17.29-2.44,33.53,5.27S172.77,160.43,170.49,165.24Z"/><ellipse class="cls-115" cx="141.09" cy="151.27" rx="9.56" ry="32.32" transform="translate(-56.08 213.84) rotate(-64.6)"/><ellipse class="cls-116" cx="141.09" cy="151.27" rx="9.49" ry="32.09" transform="translate(-56.08 213.84) rotate(-64.6)"/><ellipse class="cls-117" cx="141.09" cy="151.27" rx="9.42" ry="31.86" transform="translate(-56.08 213.84) rotate(-64.6)"/><path class="cls-118" d="M169.66,164.84c-2.22,4.66-16.81,2.37-32.59-5.12s-26.77-17.35-24.56-22,16.81-2.37,32.59,5.12S171.87,160.18,169.66,164.84Z"/><ellipse class="cls-119" cx="141.09" cy="151.27" rx="9.28" ry="31.4" transform="translate(-56.08 213.84) rotate(-64.6)"/><ellipse class="cls-120" cx="141.09" cy="151.27" rx="9.21" ry="31.17" transform="translate(-56.08 213.84) rotate(-64.6)"/><path class="cls-121" d="M169,164.54c-2.17,4.57-16.43,2.32-31.87-5s-26.19-17-24-21.54,16.43-2.32,31.87,5S171.2,160,169,164.54Z"/><path class="cls-122" d="M168.82,164.44c-2.15,4.53-16.31,2.31-31.63-5s-26-16.84-23.84-21.37,16.31-2.3,31.63,5S171,159.92,168.82,164.44Z"/><ellipse class="cls-123" cx="141.09" cy="151.27" rx="9.01" ry="30.47" transform="translate(-56.08 213.84) rotate(-64.6)"/><path class="cls-124" d="M168.41,164.25c-2.12,4.46-16.07,2.26-31.16-4.9s-25.6-16.59-23.49-21,16.07-2.27,31.16,4.9S170.52,159.79,168.41,164.25Z"/><path class="cls-125" d="M168.2,164.15c-2.1,4.42-15.95,2.25-30.92-4.86S111.87,142.83,114,138.4s15.95-2.25,30.92,4.86S170.3,159.72,168.2,164.15Z"/><ellipse class="cls-126" cx="141.09" cy="151.27" rx="8.8" ry="29.78" transform="translate(-56.08 213.84) rotate(-64.6)"/><path class="cls-127" d="M167.78,164c-2.07,4.36-15.7,2.22-30.44-4.78s-25-16.21-23-20.57,15.7-2.22,30.44,4.78S169.85,159.59,167.78,164Z"/><ellipse class="cls-128" cx="141.09" cy="151.27" rx="8.67" ry="29.32" transform="translate(-56.08 213.84) rotate(-64.6)"/><ellipse class="cls-129" cx="141.09" cy="151.27" rx="8.6" ry="29.09" transform="translate(-56.08 213.84) rotate(-64.6)"/><ellipse class="cls-130" cx="141.09" cy="151.27" rx="8.53" ry="28.86" transform="translate(-56.08 213.84) rotate(-64.6)"/><path class="cls-131" d="M167,163.55c-2,4.22-15.21,2.15-29.49-4.63s-24.24-15.7-22.24-19.92,15.21-2.15,29.5,4.63S169,159.33,167,163.55Z"/><path class="cls-132" d="M166.74,163.45c-2,4.19-15.09,2.13-29.26-4.59s-24-15.58-22-19.77,15.09-2.13,29.26,4.6S168.73,159.27,166.74,163.45Z"/><path class="cls-133" d="M166.53,163.35c-2,4.16-15,2.12-29-4.55s-23.84-15.45-21.87-19.61,15-2.11,29,4.56S168.5,159.2,166.53,163.35Z"/><ellipse class="cls-134" cx="141.09" cy="151.27" rx="8.26" ry="27.93" transform="translate(-56.08 213.84) rotate(-64.6)"/><ellipse class="cls-135" cx="141.09" cy="151.27" rx="8.19" ry="27.7" transform="translate(-56.08 213.84) rotate(-64.6)"/><ellipse class="cls-136" cx="141.09" cy="151.27" rx="8.12" ry="27.47" transform="translate(-56.08 213.84) rotate(-64.6)"/><path class="cls-137" d="M165.69,163c-1.9,4-14.47,2-28.06-4.41s-23.06-14.94-21.15-19,14.47-2,28.06,4.41S167.6,158.94,165.69,163Z"/><path class="cls-138" d="M165.49,162.86c-1.9,4-14.35,2-27.83-4.37s-22.87-14.82-21-18.8,14.35-2,27.83,4.37S167.38,158.88,165.49,162.86Z"/><path class="cls-139" d="M165.28,162.76c-1.88,4-14.23,2-27.59-4.33s-22.67-14.69-20.8-18.64,14.23-2,27.59,4.33S167.15,158.81,165.28,162.76Z"/><ellipse class="cls-140" cx="141.09" cy="151.27" rx="7.85" ry="26.55" transform="translate(-56.08 213.84) rotate(-64.6)"/><ellipse class="cls-141" cx="141.09" cy="151.27" rx="7.78" ry="26.32" transform="translate(-56.08 213.84) rotate(-64.6)"/><ellipse class="cls-142" cx="141.09" cy="151.27" rx="7.71" ry="26.09" transform="translate(-56.08 213.84) rotate(-64.6)"/><ellipse class="cls-143" cx="141.09" cy="151.27" rx="7.64" ry="25.86" transform="translate(-56.08 213.84) rotate(-64.6)"/><ellipse class="cls-144" cx="141.09" cy="151.27" rx="7.58" ry="25.63" transform="translate(-56.08 213.84) rotate(-64.6)"/><ellipse class="cls-145" cx="141.09" cy="151.27" rx="7.51" ry="25.4" transform="translate(-56.08 213.84) rotate(-64.6)"/><ellipse class="cls-146" cx="141.09" cy="151.27" rx="7.44" ry="25.16" transform="translate(-56.08 213.84) rotate(-64.6)"/><ellipse class="cls-147" cx="141.09" cy="151.27" rx="7.37" ry="24.93" transform="translate(-56.08 213.84) rotate(-64.6)"/><path class="cls-148" d="M163.4,161.87c-1.73,3.64-13.12,1.85-25.45-4S117,144.32,118.77,140.68s13.12-1.85,25.45,4S165.13,158.23,163.4,161.87Z"/><ellipse class="cls-149" cx="141.09" cy="151.27" rx="7.23" ry="24.47" transform="translate(-56.08 213.84) rotate(-64.6)"/><path class="cls-150" d="M163,161.67c-1.69,3.58-12.87,1.82-25-3.92s-20.52-13.3-18.82-16.87,12.87-1.82,25,3.92S164.68,158.1,163,161.67Z"/><path class="cls-151" d="M162.77,161.57c-1.68,3.54-12.75,1.8-24.73-3.88S117.71,144.52,119.4,141s12.75-1.81,24.73,3.88S164.46,158,162.77,161.57Z"/><path class="cls-152" d="M162.57,161.47c-1.67,3.51-12.64,1.79-24.5-3.85s-20.13-13-18.47-16.55,12.64-1.78,24.5,3.85S164.23,158,162.57,161.47Z"/><path class="cls-153" d="M162.36,161.37c-1.65,3.48-12.51,1.77-24.26-3.81s-19.94-12.91-18.29-16.39,12.51-1.76,24.26,3.82S164,157.9,162.36,161.37Z"/><path class="cls-154" d="M162.15,161.28c-1.63,3.43-12.39,1.74-24-3.78S118.39,144.71,120,141.27s12.39-1.75,24,3.78S163.78,157.84,162.15,161.28Z"/><path class="cls-155" d="M161.94,161.18c-1.62,3.4-12.26,1.73-23.78-3.74s-19.55-12.66-17.93-16.07,12.26-1.73,23.78,3.74S163.56,157.77,161.94,161.18Z"/><ellipse class="cls-156" cx="141.09" cy="151.27" rx="6.76" ry="22.86" transform="translate(-56.08 213.84) rotate(-64.6)"/><ellipse class="cls-157" cx="141.09" cy="151.27" rx="6.69" ry="22.62" transform="translate(-56.08 213.84) rotate(-64.6)"/><path class="cls-158" d="M161.31,160.88c-1.56,3.3-11.89,1.68-23.06-3.63s-19-12.28-17.39-15.58,11.89-1.68,23.06,3.62S162.88,157.58,161.31,160.88Z"/><ellipse class="cls-159" cx="141.09" cy="151.27" rx="6.55" ry="22.16" transform="translate(-56.08 213.84) rotate(-64.6)"/><ellipse class="cls-160" cx="141.09" cy="151.27" rx="6.48" ry="21.93" transform="translate(-56.08 213.84) rotate(-64.6)"/><path class="cls-161" d="M160.69,160.58c-1.52,3.2-11.53,1.63-22.36-3.51S120,145.17,121.48,142s11.53-1.63,22.36,3.51S162.21,157.38,160.69,160.58Z"/><ellipse class="cls-162" cx="141.09" cy="151.27" rx="6.35" ry="21.47" transform="translate(-56.08 213.84) rotate(-64.6)"/><path class="cls-163" d="M160.27,160.38c-1.49,3.14-11.28,1.6-21.88-3.43s-18-11.65-16.49-14.79,11.28-1.59,21.88,3.44S161.76,157.25,160.27,160.38Z"/><path class="cls-164" d="M160.06,160.28c-1.47,3.1-11.16,1.58-21.64-3.4s-17.78-11.52-16.31-14.62,11.16-1.57,21.64,3.4S161.53,157.19,160.06,160.28Z"/><path class="cls-165" d="M159.85,160.19c-1.45,3.06-11,1.55-21.4-3.37s-17.59-11.39-16.13-14.46,11-1.56,21.4,3.37S161.31,157.12,159.85,160.19Z"/><path class="cls-166" d="M159.65,160.09c-1.44,3-10.92,1.54-21.17-3.33s-17.39-11.27-16-14.3,10.92-1.54,21.17,3.33S161.09,157.06,159.65,160.09Z"/><path class="cls-167" d="M159.44,160c-1.43,3-10.8,1.52-20.93-3.29s-17.2-11.14-15.78-14.14,10.8-1.52,20.93,3.29S160.86,157,159.44,160Z"/><path class="cls-168" d="M159.23,159.89c-1.41,3-10.67,1.51-20.69-3.25s-17-11-15.6-14,10.67-1.51,20.69,3.25S160.64,156.93,159.23,159.89Z"/><ellipse class="cls-169" cx="141.09" cy="151.27" rx="5.87" ry="19.85" transform="translate(-56.08 213.84) rotate(-64.6)"/><ellipse class="cls-170" cx="141.09" cy="151.27" rx="5.8" ry="19.62" transform="translate(-56.08 213.84) rotate(-64.6)"/><path class="cls-171" d="M158.6,159.59c-1.35,2.86-10.3,1.46-20-3.14S122.21,145.82,123.57,143s10.3-1.46,20,3.13S160,156.73,158.6,159.59Z"/><ellipse class="cls-172" cx="141.09" cy="151.27" rx="5.66" ry="19.16" transform="translate(-56.08 213.84) rotate(-64.6)"/><ellipse class="cls-173" cx="141.09" cy="151.27" rx="5.6" ry="18.93" transform="translate(-56.08 213.84) rotate(-64.6)"/><path class="cls-174" d="M158,159.29c-1.31,2.76-9.94,1.41-19.27-3s-15.83-10.26-14.52-13,9.94-1.4,19.27,3S159.29,156.54,158,159.29Z"/><ellipse class="cls-175" cx="141.09" cy="151.27" rx="5.46" ry="18.47" transform="translate(-56.08 213.84) rotate(-64.6)"/><ellipse class="cls-176" cx="141.09" cy="151.27" rx="5.39" ry="18.24" transform="translate(-56.08 213.84) rotate(-64.6)"/><path class="cls-177" d="M157.35,159c-1.26,2.65-9.56,1.35-18.55-2.92s-15.24-9.87-14-12.53,9.56-1.35,18.55,2.91S158.61,156.34,157.35,159Z"/><path class="cls-178" d="M157.14,158.9c-1.24,2.62-9.44,1.33-18.31-2.88s-15.05-9.75-13.8-12.37,9.44-1.33,18.31,2.88S158.39,156.28,157.14,158.9Z"/><path class="cls-179" d="M156.94,158.8c-1.23,2.59-9.33,1.32-18.08-2.84s-14.85-9.62-13.62-12.21,9.32-1.32,18.07,2.84S158.16,156.21,156.94,158.8Z"/><ellipse class="cls-180" cx="141.09" cy="151.27" rx="5.12" ry="17.31" transform="translate(-56.08 213.84) rotate(-64.6)"/><path class="cls-181" d="M156.52,158.6c-1.2,2.52-9.08,1.28-17.6-2.76s-14.46-9.37-13.27-11.89,9.08-1.29,17.6,2.76S157.71,156.08,156.52,158.6Z"/><path class="cls-182" d="M156.31,158.5c-1.18,2.49-8.95,1.27-17.36-2.73s-14.27-9.24-13.09-11.72,9-1.27,17.36,2.72S157.49,156,156.31,158.5Z"/><path class="cls-183" d="M156.1,158.4c-1.16,2.46-8.83,1.25-17.12-2.69s-14.07-9.11-12.91-11.57,8.83-1.24,17.12,2.69S157.26,156,156.1,158.4Z"/><path class="cls-184" d="M155.89,158.3c-1.15,2.42-8.71,1.23-16.88-2.65s-13.88-9-12.73-11.41S135,143,143.16,146.9,157,155.89,155.89,158.3Z"/><ellipse class="cls-185" cx="141.09" cy="151.27" rx="4.78" ry="16.16" transform="translate(-56.08 213.84) rotate(-64.6)"/><ellipse class="cls-186" cx="141.09" cy="151.27" rx="4.71" ry="15.93" transform="translate(-56.08 213.84) rotate(-64.6)"/><path class="cls-187" d="M155.27,158c-1.1,2.31-8.34,1.18-16.18-2.54s-13.29-8.61-12.19-10.93,8.34-1.18,16.18,2.54S156.37,155.69,155.27,158Z"/><path class="cls-188" d="M155.06,157.91c-1.09,2.28-8.22,1.16-15.94-2.51s-13.09-8.48-12-10.76,8.22-1.16,15.94,2.5S156.14,155.63,155.06,157.91Z"/><path class="cls-189" d="M154.85,157.81c-1.07,2.25-8.1,1.14-15.7-2.47s-12.9-8.35-11.83-10.6,8.1-1.14,15.7,2.46S155.92,155.56,154.85,157.81Z"/><path class="cls-190" d="M154.64,157.71c-1,2.21-8,1.13-15.46-2.43s-12.7-8.23-11.65-10.44,8-1.13,15.46,2.43S155.69,155.5,154.64,157.71Z"/><path class="cls-191" d="M154.43,157.61c-1,2.18-7.85,1.11-15.22-2.39s-12.51-8.1-11.47-10.28,7.85-1.11,15.22,2.39S155.47,155.43,154.43,157.61Z"/><ellipse class="cls-192" cx="141.09" cy="151.27" rx="4.3" ry="14.54" transform="translate(-56.08 213.84) rotate(-64.6)"/><path class="cls-193" d="M154,157.41c-1,2.11-7.61,1.08-14.75-2.31s-12.12-7.85-11.12-10,7.61-1.07,14.75,2.32S155,155.3,154,157.41Z"/><ellipse class="cls-194" cx="141.09" cy="151.27" rx="4.16" ry="14.08" transform="translate(-56.08 213.84) rotate(-64.6)"/><path class="cls-195" d="M153.6,157.22c-1,2-7.36,1-14.27-2.25s-11.73-7.59-10.76-9.64,7.36-1,14.27,2.24S154.57,155.17,153.6,157.22Z"/><path class="cls-196" d="M153.39,157.12c-.95,2-7.24,1-14-2.21s-11.53-7.47-10.58-9.48,7.24-1,14,2.21S154.34,155.11,153.39,157.12Z"/><path class="cls-197" d="M153.18,157c-.94,2-7.11,1-13.79-2.17s-11.34-7.34-10.4-9.32,7.11-1,13.79,2.17S154.12,155,153.18,157Z"/><path class="cls-198" d="M153,156.92c-.92,1.94-7,1-13.55-2.13s-11.14-7.22-10.22-9.16,7-1,13.55,2.13S153.89,155,153,156.92Z"/><path class="cls-199" d="M152.76,156.82c-.9,1.91-6.86,1-13.31-2.09s-10.95-7.09-10-9,6.86-1,13.31,2.09S153.67,154.91,152.76,156.82Z"/><path class="cls-200" d="M152.56,156.72c-.89,1.87-6.75.95-13.08-2.06s-10.75-7-9.87-8.83,6.75-1,13.09,2S153.44,154.85,152.56,156.72Z"/><path class="cls-201" d="M152.35,156.62c-.88,1.84-6.63.94-12.85-2s-10.55-6.83-9.68-8.67,6.63-.94,12.85,2S153.22,154.78,152.35,156.62Z"/><path class="cls-202" d="M152.14,156.52c-.86,1.81-6.5.92-12.61-2s-10.36-6.71-9.5-8.51,6.5-.92,12.61,2S153,154.72,152.14,156.52Z"/><path class="cls-203" d="M151.93,156.42c-.84,1.77-6.38.9-12.37-1.94s-10.16-6.58-9.32-8.36,6.38-.9,12.37,1.95S152.77,154.65,151.93,156.42Z"/><path class="cls-204" d="M151.72,156.32c-.82,1.74-6.25.89-12.13-1.9s-10-6.46-9.14-8.2,6.25-.88,12.13,1.91S152.55,154.59,151.72,156.32Z"/><ellipse class="cls-205" cx="141.09" cy="151.27" rx="3.41" ry="11.54" transform="translate(-56.08 213.84) rotate(-64.6)"/><path class="cls-206" d="M151.3,156.13c-.79,1.66-6,.84-11.65-1.84s-9.58-6.2-8.78-7.87,6-.85,11.65,1.83S152.1,154.46,151.3,156.13Z"/><path class="cls-207" d="M151.1,156c-.78,1.63-5.89.83-11.42-1.8s-9.38-6.07-8.61-7.71,5.89-.83,11.42,1.79S151.87,154.39,151.1,156Z"/><path class="cls-208" d="M150.89,155.93c-.76,1.6-5.77.81-11.18-1.76s-9.19-5.95-8.43-7.55,5.77-.81,11.18,1.76S151.65,154.33,150.89,155.93Z"/><path class="cls-209" d="M150.68,155.83c-.75,1.57-5.64.8-10.94-1.72s-9-5.82-8.25-7.39,5.64-.8,10.94,1.72S151.42,154.26,150.68,155.83Z"/><path class="cls-210" d="M150.47,155.73c-.73,1.53-5.52.78-10.7-1.68s-8.8-5.7-8.07-7.23,5.52-.78,10.7,1.68S151.2,154.2,150.47,155.73Z"/><path class="cls-211" d="M150.26,155.63c-.71,1.5-5.4.76-10.46-1.64s-8.6-5.57-7.89-7.07,5.4-.77,10.46,1.64S151,154.13,150.26,155.63Z"/><path class="cls-212" d="M150.05,155.53c-.69,1.47-5.27.75-10.22-1.6s-8.41-5.45-7.71-6.91,5.27-.75,10.22,1.6S150.75,154.07,150.05,155.53Z"/><path class="cls-213" d="M149.84,155.43c-.67,1.43-5.15.73-10-1.57s-8.21-5.31-7.53-6.75,5.15-.72,10,1.57S150.52,154,149.84,155.43Z"/><path class="cls-214" d="M149.64,155.33c-.67,1.4-5,.71-9.76-1.53s-8-5.19-7.35-6.59,5-.71,9.76,1.54S150.3,153.94,149.64,155.33Z"/><path class="cls-215" d="M149.43,155.23c-.65,1.37-4.91.7-9.52-1.49s-7.81-5.06-7.17-6.43,4.91-.69,9.52,1.5S150.07,153.87,149.43,155.23Z"/><path class="cls-216" d="M149.22,155.14c-.63,1.32-4.78.67-9.28-1.46s-7.62-4.94-7-6.27,4.78-.67,9.28,1.46S149.85,153.81,149.22,155.14Z"/><path class="cls-217" d="M149,155c-.61,1.29-4.66.65-9-1.42s-7.42-4.82-6.81-6.11,4.66-.66,9,1.42S149.62,153.74,149,155Z"/><path class="cls-218" d="M148.8,154.94c-.6,1.26-4.54.64-8.8-1.38s-7.23-4.69-6.63-5.95,4.54-.64,8.8,1.38S149.4,153.68,148.8,154.94Z"/><path class="cls-219" d="M148.59,154.84c-.58,1.22-4.41.62-8.56-1.35s-7-4.56-6.45-5.78,4.41-.62,8.56,1.34S149.17,153.61,148.59,154.84Z"/><path class="cls-220" d="M148.38,154.74c-.56,1.19-4.29.61-8.32-1.31s-6.84-4.43-6.27-5.62,4.29-.61,8.32,1.31S149,153.55,148.38,154.74Z"/><path class="cls-221" d="M148.18,154.64c-.55,1.16-4.17.59-8.09-1.27s-6.65-4.31-6.1-5.46,4.17-.59,8.09,1.27S148.73,153.48,148.18,154.64Z"/><path class="cls-222" d="M148,154.54c-.54,1.13-4.05.57-7.85-1.23s-6.45-4.18-5.92-5.3,4.05-.58,7.85,1.23S148.5,153.42,148,154.54Z"/><ellipse class="cls-223" cx="141.09" cy="151.27" rx="2.18" ry="7.39" transform="translate(-56.08 213.84) rotate(-64.6)"/><path class="cls-224" d="M147.55,154.34c-.5,1.06-3.8.54-7.37-1.15s-6.06-3.93-5.56-5,3.8-.53,7.37,1.16S148.05,153.29,147.55,154.34Z"/><path class="cls-225" d="M147.34,154.24c-.48,1-3.68.52-7.13-1.12s-5.87-3.8-5.38-4.82,3.68-.52,7.13,1.12S147.83,153.22,147.34,154.24Z"/><path class="cls-226" d="M147.13,154.15c-.47,1-3.55.5-6.89-1.09s-5.67-3.67-5.2-4.66,3.55-.5,6.89,1.09S147.6,153.16,147.13,154.15Z"/><path class="cls-227" d="M146.92,154.05c-.45.95-3.43.48-6.65-1.05s-5.48-3.55-5-4.5,3.43-.48,6.65,1.05S147.38,153.09,146.92,154.05Z"/><path class="cls-228" d="M146.72,154c-.44.92-3.32.47-6.43-1s-5.27-3.42-4.84-4.34,3.32-.47,6.43,1S147.15,153,146.72,154Z"/><path class="cls-229" d="M146.51,153.85c-.42.88-3.19.45-6.19-1s-5.08-3.3-4.66-4.18,3.19-.45,6.19,1S146.93,153,146.51,153.85Z"/><path class="cls-230" d="M146.3,153.75c-.41.85-3.07.43-6-.93s-4.88-3.17-4.48-4,3.07-.43,5.95.93S146.7,152.9,146.3,153.75Z"/><path class="cls-231" d="M146.09,153.65c-.39.82-2.94.42-5.71-.9s-4.69-3-4.3-3.85,2.94-.42,5.71.89S146.48,152.83,146.09,153.65Z"/><path class="cls-232" d="M145.88,153.55c-.37.78-2.82.4-5.47-.86s-4.49-2.91-4.12-3.69,2.82-.4,5.47.86S146.25,152.77,145.88,153.55Z"/><path class="cls-233" d="M145.67,153.45c-.35.75-2.7.38-5.23-.82s-4.3-2.79-3.94-3.53,2.7-.39,5.23.82S146,152.7,145.67,153.45Z"/><path class="cls-234" d="M145.46,153.35c-.33.72-2.57.37-5-.78s-4.1-2.66-3.76-3.38,2.57-.36,5,.79S145.8,152.64,145.46,153.35Z"/><path class="cls-235" d="M145.26,153.25c-.33.69-2.46.35-4.76-.74s-3.91-2.54-3.59-3.22,2.46-.34,4.76.75S145.58,152.57,145.26,153.25Z"/><path class="cls-236" d="M145.05,153.16c-.31.64-2.33.32-4.52-.71s-3.71-2.41-3.41-3.06,2.33-.33,4.52.71S145.35,152.51,145.05,153.16Z"/><path class="cls-237" d="M144.84,153.06c-.29.61-2.21.31-4.28-.68s-3.52-2.28-3.23-2.89,2.21-.31,4.28.67S145.13,152.44,144.84,153.06Z"/><path class="cls-238" d="M144.63,153c-.27.58-2.08.29-4-.64s-3.33-2.15-3.05-2.73,2.08-.29,4,.64S144.91,152.38,144.63,153Z"/><path class="cls-239" d="M144.42,152.86c-.26.54-2,.28-3.8-.6s-3.13-2-2.87-2.57,2-.28,3.8.6S144.68,152.31,144.42,152.86Z"/><path class="cls-240" d="M144.21,152.76c-.24.51-1.84.26-3.56-.56s-2.94-1.9-2.69-2.41,1.84-.26,3.56.56S144.46,152.25,144.21,152.76Z"/><path class="cls-241" d="M144,152.66c-.22.48-1.71.24-3.32-.52s-2.74-1.78-2.51-2.25,1.71-.24,3.32.52S144.23,152.18,144,152.66Z"/><path class="cls-242" d="M143.8,152.56c-.21.44-1.6.23-3.1-.48s-2.54-1.65-2.33-2.09,1.6-.23,3.1.48S144,152.12,143.8,152.56Z"/><path class="cls-243" d="M143.59,152.46c-.2.41-1.47.21-2.86-.45s-2.34-1.52-2.15-1.92,1.47-.21,2.86.44S143.78,152.05,143.59,152.46Z"/><path class="cls-244" d="M143.38,152.36c-.18.38-1.35.19-2.62-.41s-2.15-1.39-2-1.77,1.35-.19,2.62.42S143.56,152,143.38,152.36Z"/><path class="cls-245" d="M143.17,152.26c-.16.34-1.23.18-2.38-.37s-1.95-1.27-1.79-1.61,1.23-.17,2.38.38S143.33,151.92,143.17,152.26Z"/><path class="cls-246" d="M143,152.17c-.14.3-1.1.15-2.14-.34s-1.76-1.14-1.61-1.45,1.1-.15,2.14.34S143.11,151.86,143,152.17Z"/><path class="cls-247" d="M142.75,152.07c-.13.27-1,.13-1.9-.3s-1.56-1-1.43-1.29,1-.14,1.9.3S142.88,151.79,142.75,152.07Z"/><path class="cls-248" d="M142.54,152c-.11.24-.85.12-1.66-.26s-1.37-.89-1.25-1.13.85-.12,1.66.26S142.66,151.73,142.54,152Z"/><path class="cls-249" d="M142.34,151.87c-.1.2-.74.1-1.43-.23s-1.17-.76-1.08-1,.74-.1,1.43.22S142.43,151.66,142.34,151.87Z"/><path class="cls-250" d="M142.13,151.77c-.08.17-.62.09-1.19-.19s-1-.63-.9-.8.62-.09,1.19.19S142.21,151.6,142.13,151.77Z"/><path class="cls-251" d="M141.92,151.67c-.07.14-.49.07-.95-.15s-.78-.51-.72-.64.49-.07.95.15S142,151.53,141.92,151.67Z"/><path class="cls-252" d="M141.71,151.57c-.05.1-.37.05-.71-.11s-.59-.38-.54-.48.37-.06.71.11S141.76,151.47,141.71,151.57Z"/><path class="cls-253" d="M141.5,151.47c0,.07-.24,0-.47-.07s-.39-.26-.36-.32.24,0,.47.07S141.53,151.4,141.5,151.47Z"/><path class="cls-254" d="M141.29,151.37s-.12,0-.23,0-.2-.13-.18-.17.12,0,.23,0S141.31,151.34,141.29,151.37Z"/></g></g><path class="cls-255" d="M108.32,80.87c-2.65-1.53-7.28-1.33-10.34.43L88.7,86.67l48.89,28.22a7.11,7.11,0,0,0,6.4-.26l11.4-6.58Z"/><path class="cls-10" d="M251.43,40.69l-1.19,1-.07,0-66-38.12a8.15,8.15,0,0,0-7.32.3L69,66a7.32,7.32,0,0,0-.68.46l-1.11-.82v2.71h0a2.13,2.13,0,0,0,1.26,1.87l66,38.13a8.15,8.15,0,0,0,7.32-.31L249.64,45.82a3,3,0,0,0,1.79-2.39h0Z"/><path class="cls-256" d="M249.64,43.08,141.8,105.34a8.15,8.15,0,0,1-7.32.31l-66-38.13c-1.88-1.08-1.64-3,.52-4.22L176.82,1a8.15,8.15,0,0,1,7.32-.3l66,38.12C252,39.94,251.81,41.83,249.64,43.08Z"/><path class="cls-10" d="M164.54,30.87l-9.27-5.36,2.27-1.31a7.48,7.48,0,0,1,1.23-.58,5.18,5.18,0,0,1,1.24-.27,3.8,3.8,0,0,1,1.29.1,4.94,4.94,0,0,1,1.32.55c1.14.66,1.33,1.29.56,1.9a4.14,4.14,0,0,1,1.94-.3,5,5,0,0,1,2,.68c.88.5,1.33,1,1.34,1.54s-.4,1-1.25,1.51Zm-3.8-4.15.52-.3c.5-.29.73-.55.71-.78s-.29-.49-.8-.78a3.06,3.06,0,0,0-.72-.31,1.56,1.56,0,0,0-.68,0,2.41,2.41,0,0,0-.65.18,8,8,0,0,0-.74.39l-.24.13ZM165,29.2l.62-.35c.51-.29.73-.56.7-.81s-.34-.53-.88-.84a3.33,3.33,0,0,0-1.54-.51,2.8,2.8,0,0,0-1.48.41l-.53.31Z"/><path class="cls-10" d="M170.41,27.48,163,21l1.76-1,11.16,4.27-1.57.91-2.53-1-1.61.93L172,26.56Zm-1.1-3.12,1.24-.72-4.43-1.84Z"/><path class="cls-10" d="M176.85,23.76l-9.28-5.35,1.17-.67,7.52,1.72-5.25-3,1.4-.8L181.68,21l-1.1.64-7.82-1.86,5.52,3.19Z"/><path class="cls-10" d="M183.07,20.17l-9.28-5.35,1.69-1,4,2.33-2.2-3.38,1.61-.93,2.38,3.42,7.08,1.83-1.68,1-6-1.6L181,17l3.76,2.17Z"/><polygon class="cls-10" points="154.46 82.47 133.79 94.4 131.4 93.02 152.07 81.09 154.46 82.47"/><polygon class="cls-10" points="179.87 67.8 159.2 79.73 156.81 78.35 177.48 66.42 179.87 67.8"/><polygon class="cls-10" points="205.28 53.13 184.61 65.06 182.22 63.68 202.89 51.75 205.28 53.13"/><polygon class="cls-10" points="230.69 38.46 210.02 50.39 207.63 49.01 228.3 37.08 230.69 38.46"/><path class="cls-10" d="M254.74,122.43l-36.1-21c-7.15-4.13-13.89-4.78-19-1.85s-7.9,9.11-7.9,17.37v2.64c.26.18.53.35.8.51v-3.15c0-8,2.66-13.88,7.5-16.68s11.3-2.13,18.19,1.85l36.1,21a.38.38,0,0,0,.54-.14A.4.4,0,0,0,254.74,122.43Z"/><path class="cls-10" d="M142.17,97.4V75.18c0-16.28-11.47-36.16-25.57-44.3-6.91-4-13.42-4.62-18.35-1.77s-7.63,8.79-7.63,16.77v5.67l.8.8V45.88c0-7.68,2.57-13.39,7.23-16.08s10.9-2.07,17.55,1.77c13.88,8,25.17,27.58,25.17,43.61V97.4c0,13.49,7.95,29.47,18.71,39.08v-1.07C149.74,125.91,142.17,110.47,142.17,97.4Z"/><path class="cls-10" d="M160.16,136.14s-9.19-9.36-12.76-17.08-5.44-14.85-5.5-21.22-.12-2-.12-2,.39-22.7-.57-26.28S138,46.85,119.28,33.12s-28.08,1.08-28,8.82,0,12.7,0,12.7,10.26,8.3,14.13,20.16,4.25,9.8,4.31,21.6.12,12.53.12,12.53-.86,10.51,1.75,18.65,7.32,17.15,12.9,23,13.82,12.89,21.44,12.2,12.74-3.5,14.2-15.55Z"/><polygon class="cls-10" points="98.25 29.11 66.69 47.3 91.31 54.63 98.25 29.11"/><path class="cls-257" d="M191.75,119.58v3.65c-1.75-1.27-10-6.91-17.85-6.63-8.84.31-11.8,8.4-11.8,8.4s-2.09,6-1.94,8.86c0,.49.05,1.07.07,1.68l-.15-.13v1.07l.19.15c.07,2.73.09,5.72.09,5.72a49.25,49.25,0,0,1-.69,8.93c-1.37,6.37-6.76,10-7.18,10.55l32.39-18.65.09,0,.13-.09.17-.09v0c4.69-2.89,7.27-8.71,7.27-16.46v-6.39C192.28,119.93,192,119.76,191.75,119.58Z"/><path class="cls-10" d="M166.51,118.76l33.14-19.19a16.54,16.54,0,0,1,12.49-.46c6.83,2.5,42.64,24,42.64,24l-32,18.43s-37.17-23-41.54-24.18C172.3,115,166.51,118.76,166.51,118.76Z"/><path class="cls-258" d="M90.62,54h0a31.92,31.92,0,0,0-16.29-8C64.26,44.52,60.09,56.3,60.09,56.3A65.45,65.45,0,0,0,59,66c0,3.62.3,16.77.3,16.77L91.2,64.42h0a.38.38,0,0,0,.22-.35V54.73C91.15,54.46,90.89,54.3,90.62,54Z"/><path class="cls-259" d="M146.27,163.27a23.25,23.25,0,0,1-11.45-3.5c-14-8.08-25.39-27.81-25.39-44V93.58c0-16-11.29-35.59-25.17-43.61-6.65-3.84-12.88-4.47-17.55-1.78s-7.23,8.41-7.23,16.09V82.46a.4.4,0,1,1-.8,0V64.28c0-8,2.71-13.93,7.63-16.77s11.44-2.21,18.34,1.77c14.11,8.14,25.58,28,25.58,44.3V115.8c0,15.91,11.21,35.33,25,43.28,6.6,3.81,12.78,4.44,17.41,1.77s7.18-8.35,7.18-16v-9.54c0-8.26,2.81-14.42,7.9-17.37s11.84-2.28,19,1.85l36.09,21a.41.41,0,0,1,.15.55.39.39,0,0,1-.54.14l-36.1-21c-6.89-4-13.35-4.64-18.19-1.85s-7.5,8.72-7.5,16.68v9.54c0,7.92-2.69,13.83-7.58,16.66A13.34,13.34,0,0,1,146.27,163.27Z"/><polygon class="cls-260" points="123.53 102.41 123.53 105.28 119.6 107.54 119.6 104.67 123.53 102.41"/><polygon class="cls-260" points="130.68 98.28 130.68 101.15 126.75 103.42 126.75 100.55 130.68 98.28"/><polygon class="cls-260" points="134.96 90.43 134.96 93.31 119.79 102.07 119.79 99.19 134.96 90.43"/><polygon class="cls-260" points="127.39 81.35 127.39 78.48 134.96 74.11 134.96 76.98 127.39 81.35"/><polygon class="cls-260" points="119.6 85.84 119.6 82.97 123.53 80.71 123.53 83.58 119.6 85.84"/><polygon class="cls-260" points="119.6 91.21 119.6 88.34 127.08 84.03 127.08 86.9 119.6 91.21"/><polygon class="cls-260" points="130.1 85.16 130.1 82.28 134.96 79.47 134.96 82.34 130.1 85.16"/><polygon class="cls-260" points="127.39 114.79 127.39 111.92 134.96 107.54 134.96 110.42 127.39 114.79"/><polygon class="cls-260" points="119.6 119.28 119.6 116.41 123.53 114.15 123.53 117.02 119.6 119.28"/><polygon class="cls-260" points="119.6 124.65 119.6 121.78 127.08 117.46 127.08 120.34 119.6 124.65"/><polygon class="cls-260" points="130.1 118.59 130.1 115.72 134.96 112.91 134.96 115.78 130.1 118.59"/><polygon class="cls-260" points="208.2 123.28 205.71 121.84 209.06 119.91 211.55 121.34 208.2 123.28"/><polygon class="cls-260" points="213 115.14 210.52 113.7 216.9 110.02 219.38 111.45 213 115.14"/><polygon class="cls-260" points="198.79 117.47 196.31 116.04 211.82 107.08 214.3 108.52 198.79 117.47"/><polygon class="cls-260" points="213.92 119.98 211.43 118.54 224.37 111.07 226.86 112.51 213.92 119.98"/><polygon class="cls-260" points="203.88 120.41 201.39 118.97 207.77 115.29 210.26 116.72 203.88 120.41"/><polygon class="cls-10" points="48.73 127.98 47.4 128.75 44.23 126.93 45.57 126.16 48.73 127.98"/><polygon class="cls-10" points="51.19 126.56 49.86 127.33 46.69 125.51 48.03 124.74 51.19 126.56"/><polygon class="cls-10" points="53.65 125.14 52.32 125.91 49.15 124.09 50.49 123.32 53.65 125.14"/><polygon class="cls-10" points="56.11 123.72 54.78 124.49 51.61 122.67 52.95 121.9 56.11 123.72"/><g class="cls-261"><polygon class="cls-262" points="87.54 186.87 71.25 177.47 71.25 170.24 87.54 179.65 87.54 186.87"/><polygon class="cls-263" points="87.54 179.65 71.25 170.24 87.54 160.84 103.83 170.24 87.54 179.65"/><polygon class="cls-264" points="103.83 177.47 87.54 186.87 87.54 179.65 103.83 170.24 103.83 177.47"/><polygon class="cls-265" points="87.54 179.28 71.56 170.06 71.25 170.24 87.54 179.65 103.83 170.24 103.52 170.06 87.54 179.28"/><polygon class="cls-10" points="84.4 180.93 74.95 175.41 66.99 181.78 66.31 187.29 66.31 192.3 31.77 213.16 23.91 217.81 25.11 221.4 30.57 223.57 38.14 221.33 57.27 209.35 71.25 201.66 75.94 198.07 76.24 190.43 76.83 185.79 84.4 180.93"/><path class="cls-10" d="M31,224.84a9.08,9.08,0,0,1-9-9.06V190.35a1.24,1.24,0,1,1,2.47,0v25.43a6.58,6.58,0,0,0,9.86,5.69l38.28-22.11a4.69,4.69,0,0,0,2.33-4v-5.66a7.13,7.13,0,0,1,3.56-6.17l4.6-2.66A1.24,1.24,0,0,1,84.27,183l-4.6,2.66a4.66,4.66,0,0,0-2.33,4v5.66a7.16,7.16,0,0,1-3.57,6.18L35.5,223.61A9,9,0,0,1,31,224.84Z"/><path class="cls-10" d="M75.41,175.86a1.24,1.24,0,0,0-1.69-.45l-4.6,2.65a7.15,7.15,0,0,0-3.56,6.18v5.66a4.69,4.69,0,0,1-2.33,4l-40,23.13a6.63,6.63,0,0,1-2.69.86c.09.82.06,1.65.12,2.48a9.09,9.09,0,0,0,3.8-1.2l40.05-23.13A7.16,7.16,0,0,0,68,189.9v-5.66a4.67,4.67,0,0,1,2.33-4l4.6-2.65A1.24,1.24,0,0,0,75.41,175.86Z"/><path class="cls-266" d="M27.41,224.1l-3.75-4.7-.54-5.56V200.36l0-5L13.32,197v-4.57a1.24,1.24,0,0,0-2.48,0v18.93a9,9,0,0,0,4.53,7.83,8.49,8.49,0,0,0,1.57.72h0Z"/><path class="cls-267" d="M31,224.84a9.08,9.08,0,0,1-9-9.06V190.35a1.24,1.24,0,1,1,2.47,0v25.43a6.58,6.58,0,0,0,9.86,5.69l38.28-22.11a4.69,4.69,0,0,0,2.33-4v-5.66a7.13,7.13,0,0,1,3.56-6.17l4.6-2.66A1.24,1.24,0,0,1,84.27,183l-4.6,2.66a4.66,4.66,0,0,0-2.33,4v5.66a7.16,7.16,0,0,1-3.57,6.18L35.5,223.61A9,9,0,0,1,31,224.84Z"/><polygon class="cls-268" points="90.98 183.41 89.31 184.37 89.31 181.03 90.98 180.06 90.98 183.41"/><polygon class="cls-10" points="93.75 181.81 92.08 182.77 92.08 179.43 93.75 178.47 93.75 181.81"/><polygon class="cls-10" points="96.52 180.21 94.85 181.17 94.85 177.83 96.52 176.87 96.52 180.21"/><polygon class="cls-10" points="99.28 178.61 97.62 179.57 97.62 176.23 99.28 175.27 99.28 178.61"/><polygon class="cls-10" points="102.05 177.01 100.39 177.97 100.39 174.63 102.05 173.67 102.05 177.01"/></g></g></g></g></svg>