<svg xmlns="http://www.w3.org/2000/svg" width="1920" height="1163.636" viewBox="0 0 1920 1163.636">
  <g id="services_bg" transform="translate(1920 1163.636) rotate(180)">
    <g id="Layer_1" data-name="Layer 1">
      <path id="Path_98" data-name="Path 98" d="M660,346.054V320.89h0Z" transform="translate(1260 612.608)" fill="#a8cff0"/>
      <path id="Path_99" data-name="Path 99" d="M0,493.956l247.971-142.08L0,210Z" transform="translate(0 400.909)" fill="#d1ebff"/>
      <path id="Path_100" data-name="Path 100" d="M453.56,0,574.753,69.353,695.8,0Z" transform="translate(865.887)" fill="#d1ebff"/>
      <path id="Path_101" data-name="Path 101" d="M660,0V933.5h0V0Z" transform="translate(1260)" fill="#d1ebff"/>
      <path id="Path_102" data-name="Path 102" d="M0,400.85V669.621H966.109L247.971,258.77Z" transform="translate(0 494.015)" fill="#f0f8ff"/>
      <path id="Path_103" data-name="Path 103" d="M616.267,0,495.22,69.353,974.58,343.767V0Z" transform="translate(945.42)" fill="#f0f8ff"/>
      <path id="Path_104" data-name="Path 104" d="M660,534.515v0Z" transform="translate(1260 629.122)" fill="#fff" opacity="0.5"/>
      <path id="Path_105" data-name="Path 105" d="M0,0V610.909L247.971,752.785,1440.64,69.353,1319.447,0Z" fill="#f0f8ff"/>
      <path id="Path_106" data-name="Path 106" d="M522.45,551.028H922.6V320.89Z" transform="translate(997.404 612.608)" fill="#d1ebff"/>
      <path id="Path_107" data-name="Path 107" d="M1757.269,298.255,1277.909,23.84,85.24,707.273l718.138,410.851h553.745l400.146-230.138Z" transform="translate(162.731 45.513)" fill="#d1ebff"/>
      <path id="Path_108" data-name="Path 108" d="M1757.269,298.255,1277.909,23.84,85.24,707.273l718.138,410.851h553.745l400.146-230.138Z" transform="translate(162.731 45.513)" fill="#fff"/>
    </g>
  </g>
</svg>
